Coordinates
version=1
nRows=18
nColumns=13
inDegrees=yes

Units are S.I. units (second, meters, Newtons, ...)
If the header above contains a line with 'inDegrees', this indicates whether rotational values are in degrees (yes) or radians (no).

endheader
time	pelvis_tilt	pelvis_tx	pelvis_ty	hip_flexion_l	hip_flexion_r	knee_angle_l	knee_angle_r	ankle_angle_l	ankle_angle_r	lumbar	Treadmill_tx	Compensate_tx
     30.00000000	     -7.89234107	      1.20609671	      0.95231153	     25.57051111	     13.04414978	    -62.04562208	    -28.32893878	     -1.88946979	     11.64149082	     -0.95626091	    -80.10000000	     80.10000000
     30.01000000	     -8.23626308	      1.20659436	      0.95631292	     27.31382521	     10.43414347	    -59.76632555	    -25.94609242	     -1.28712643	      9.81099054	     -0.28321853	    -80.12670000	     80.12670000
     30.02000000	     -8.70511656	      1.20744580	      0.96071535	     28.88873967	      7.91701988	    -56.85375275	    -23.36994963	     -0.77076377	      7.23847621	      0.57288010	    -80.15340000	     80.15340000
     30.03000000	     -9.19477383	      1.20859628	      0.96545585	     30.16607573	      5.44470287	    -53.31868106	    -20.71793428	     -0.41117794	      4.07135586	      1.47253049	    -80.18010000	     80.18010000
     30.04000000	     -9.83010949	      1.20997946	      0.97012862	     31.30830332	      3.21235017	    -49.25337442	    -18.10232006	     -0.16599154	      0.42264613	      2.55093794	    -80.20680000	     80.20680000
     30.05000000	    -10.43749325	      1.21166636	      0.97478696	     32.08820529	      1.09257865	    -44.64289158	    -15.64698678	     -0.11044406	     -3.63725619	      3.62524412	    -80.23350000	     80.23350000
     30.06000000	    -11.13268212	      1.21350130	      0.97903950	     32.69432627	     -0.76017267	    -39.63470641	    -13.41269815	     -0.17315998	     -7.79726218	      4.79074531	    -80.26020000	     80.26020000
     30.07000000	    -11.79722941	      1.21550404	      0.98287225	     33.00395977	     -2.42843767	    -34.29969948	    -11.49874583	     -0.38276230	    -11.92596834	      5.91825637	    -80.28690000	     80.28690000
     30.08000000	    -12.39124498	      1.21763207	      0.98616341	     33.02509042	     -3.91592325	    -28.80591698	    -10.00316504	     -0.70392361	    -15.78470747	      6.95979172	    -80.31360000	     80.31360000
     30.09000000	    -12.83957671	      1.21982743	      0.98887603	     32.73141432	     -5.26710093	    -23.32868272	     -8.99561094	     -1.09893651	    -19.27454293	      7.80764003	    -80.34030000	     80.34030000
     30.10000000	    -13.16445093	      1.22202252	      0.99087733	     32.23258369	     -6.40063589	    -18.12540731	     -8.60711985	     -1.48361038	    -22.20190343	      8.49539229	    -80.36700000	     80.36700000
     30.11000000	    -13.37378156	      1.22410070	      0.99212693	     31.61438642	     -7.24678738	    -13.42710594	     -8.94125727	     -1.81261354	    -24.50486565	      9.02334814	    -80.39370000	     80.39370000
     30.12000000	    -13.42018803	      1.22599163	      0.99272776	     30.89242920	     -7.86631898	     -9.45332079	     -9.95302467	     -2.05847161	    -26.21055941	      9.32548173	    -80.42040000	     80.42040000
     30.13000000	    -13.50168597	      1.22750159	      0.99237665	     30.34543956	     -7.91665492	     -6.40131795	    -11.90834014	     -1.81838295	    -26.70646249	      9.62299545	    -80.44710000	     80.44710000
     30.14000000	    -13.12394829	      1.22863704	      0.99201896	     29.38310025	     -8.05986024	     -4.15839130	    -14.35878263	     -2.21811468	    -27.74451601	      9.30173725	    -80.47380000	     80.47380000
     30.15000000	    -12.83694175	      1.22927005	      0.99075514	     28.69556850	     -7.59352080	     -2.98583438	    -17.62027839	     -2.15913242	    -27.82213207	      9.02883033	    -80.50050000	     80.50050000
     30.16000000	    -12.43282477	      1.22946777	      0.98890778	     27.99089934	     -6.83524793	     -2.71029417	    -21.46258715	     -2.19104887	    -27.07196658	      8.57455115	    -80.52720000	     80.52720000
     30.17000000	    -11.96745798	      1.22919067	      0.98644752	     27.36554544	     -5.74832553	     -3.37099593	    -25.75761190	     -2.16271368	    -26.04740054	      7.98451301	    -80.55390000	     80.55390000
